<?xml version="1.0" encoding="UTF-8"?>
<!-- Generator: Adobe Illustrator 15.0.0, SVG Export Plug-In . SVG Version: 6.00 Build 0)  -->
<svg xmlns="http://www.w3.org/2000/svg" xmlns:xlink="http://www.w3.org/1999/xlink" version="1.1" id="Layer_1" x="0px" y="0px" width="50px" height="50px" viewBox="0 0 50 50" enable-background="new 0 0 50 50" xml:space="preserve">
<polygon fill-rule="evenodd" clip-rule="evenodd" fill="#333333" points="15.338,19.515 11.759,18.356 2.392,16.425 2.218,7.521   13.176,14.87 16.211,15.518 "/>
<path fill-rule="evenodd" clip-rule="evenodd" fill="#333333" stroke="#FFFFFF" d="M40.405,20.993  c-0.007,0.136-0.016,0.265-0.031,0.392c-0.139,1.277-0.306,2.308-0.641,3.16c-0.115,0.29-0.246,0.562-0.401,0.81  c-0.493,0-1.002-0.068-1.518-0.196c-1.699,1.235-4.174,1.993-7.02,2.172l0.207,1.56c-0.452,0.023-0.92,0.023-1.388-0.009  c-0.237-0.017-0.483-0.034-0.723-0.068c-0.359-0.045-0.719-0.102-1.09-0.179c-2.41-0.485-4.912-1.594-7.043-2.973  c-2.854-1.849-5.053-4.182-5.511-6.185c-0.092-0.367-0.115-0.715-0.082-1.056c0.09-0.817,0.418-1.619,0.934-2.377  c0.616-0.887,1.494-1.722,2.567-2.436c2.96-1.979,7.412-3.102,11.809-2.335c0.343,0.06,0.681,0.127,1.007,0.204  c0.281,0.06,0.551,0.136,0.813,0.213c0.821,0.222,1.574,0.503,2.271,0.835c0.688,0.316,1.312,0.674,1.887,1.073  c1.533,1.073,2.631,2.394,3.271,3.833c0.133,0.272,0.238,0.546,0.329,0.826v0.01C40.339,19.152,40.454,20.073,40.405,20.993z"/>
<path fill-rule="evenodd" clip-rule="evenodd" fill="#FFFFFF" stroke="#333333" d="M40.209,20.778c0,0.197-0.01,0.401-0.034,0.598  c-0.121,1.107-0.599,2.079-1.368,2.897c-0.285,0.322-0.616,0.612-0.992,0.885c-1.699,1.235-4.174,1.993-7.02,2.172  c-0.475,0.036-0.968,0.043-1.468,0.043c-0.494,0-0.983-0.016-1.492-0.059c-0.371-0.025-0.737-0.062-1.115-0.104  c-0.189-0.024-0.379-0.041-0.567-0.075c-1.975-0.271-3.812-0.784-5.394-1.474c-3.338-1.449-5.577-3.696-5.798-6.27  c-0.032-0.324-0.024-0.647,0.008-0.971c0.114-1.04,0.542-1.985,1.229-2.821c0.624-0.774,1.46-1.439,2.469-1.991  c2.492-1.373,5.985-2.002,9.759-1.56c0.877,0.101,1.721,0.254,2.532,0.458c0.336,0.078,0.657,0.172,0.977,0.266  c0.32,0.104,0.622,0.204,0.926,0.316c0.838,0.297,1.616,0.655,2.329,1.046c0.887,0.486,1.673,1.03,2.346,1.637l0.034,0.025  l0.884,0.877c0.165,0.197,0.33,0.393,0.478,0.596C39.733,18.36,40.191,19.562,40.209,20.778z"/>
<path fill-rule="evenodd" clip-rule="evenodd" fill="#333333" stroke="#FFFFFF" d="M46.261,21.678  c-0.145,0.816-0.521,1.557-1.11,2.167c-0.296,0.302-0.631,0.562-1.007,0.767c-0.876,0.502-1.95,0.751-3.104,0.743  c-0.594,0-1.203-0.071-1.822-0.206c-1.615-0.34-3.282-1.117-4.751-2.299c-3.615-2.896-4.681-7.152-2.385-9.505  c0.345-0.348,0.741-0.643,1.183-0.866c0.612-0.322,1.301-0.518,2.051-0.591c1.693-0.197,3.645,0.206,5.485,1.172  c0.041,0.019,0.094,0.045,0.141,0.07c0.631,0.341,1.241,0.743,1.82,1.209c0.685,0.545,1.283,1.144,1.775,1.771  C45.978,17.924,46.607,19.962,46.261,21.678z"/>
<path fill-rule="evenodd" clip-rule="evenodd" fill="#FFFFFF" stroke="#333333" d="M42.235,15.163  c2.857,2.23,3.904,5.796,2.336,7.962c-1.564,2.167-5.154,2.113-8.011-0.117c-2.856-2.231-3.903-5.798-2.334-7.963  C35.79,12.878,39.379,12.932,42.235,15.163z"/>
<path fill-rule="evenodd" clip-rule="evenodd" fill="#333333" d="M42.447,18.49c0.604,0.846,1.253,2.784,0.495,2.943  c-0.921,0.196-2.139,0.181-2.743-0.663c-0.605-0.848-2.023-3.865-1.021-3.49C39.904,17.553,41.842,17.645,42.447,18.49z"/>
<polygon fill-rule="evenodd" clip-rule="evenodd" fill="#333333" points="47.971,25.628 41.674,24.9 44.571,23.125 45.521,21.084   "/>
<polygon fill="#333333" points="28.605,15.512 21.609,18.54 21.084,16.318 24.406,16.318 "/>
<polygon fill="#333333" stroke="#FFFFFF" stroke-width="0.25" points="29.808,32.817 20.502,22.536 22.418,19.605 25.651,24.549 "/>
<path fill="#333333" d="M45.024,18.68c-0.304,0.391-1.368-0.956-3.025-2.339c-1.657-1.381-3.648-2.707-2.455-2.666  c0.485,0.018,1.894,0.411,3.552,1.794C44.753,16.851,45.328,18.288,45.024,18.68z"/>
<polygon fill="#333333" points="32.736,44.163 29.546,30.602 29.457,30.226 29.139,28.881 28.787,27.373 27.004,19.801   29.306,19.46 30.573,27.33 30.821,28.89 32.01,49.171 "/>
<polygon fill="#333333" points="41.101,1.116 36.896,2.35 29.252,18.918 27.244,19.158 28.715,15.214 "/>
<polygon fill="#333333" points="46.146,24.179 41.226,20.559 34.667,13.744 42.151,19.119 "/>
</svg>